<svg width="33" height="33" viewBox="0 0 33 33" fill="none" xmlns="http://www.w3.org/2000/svg">
<path d="M3.33094 33C2.38219 33 1.59019 32.6824 0.954937 32.0471C0.318312 31.4105 0 30.6178 0 29.6691V3.33094C0 2.38219 0.318312 1.59019 0.954937 0.954937C1.59019 0.318312 2.38219 0 3.33094 0H23.8776L33 9.12244V29.6691C33 30.6178 32.6824 31.4098 32.0471 32.0451C31.4105 32.6817 30.6178 33 29.6691 33H3.33094ZM7.21875 24.75H25.7812V22.6875H7.21875V24.75ZM7.21875 17.5312H25.7812V15.4688H7.21875V17.5312ZM22.6875 10.3125H30.9375L22.6875 2.0625V10.3125ZM7.21875 10.3125H16.5V8.25H7.21875V10.3125Z" fill="black"/>
</svg>
