<svg width="1000" height="351" viewBox="0 0 1000 351" fill="none" xmlns="http://www.w3.org/2000/svg">
<g clip-path="url(#clip0_1_155)">
<g clip-path="url(#clip1_1_155)">
<g clip-path="url(#clip2_1_155)">
<g clip-path="url(#clip3_1_155)">
<g clip-path="url(#clip4_1_155)">
<g clip-path="url(#clip5_1_155)">
<g clip-path="url(#clip6_1_155)">
<path d="M466.31 103.171V164.328C466.31 168.116 465.775 171.551 464.704 174.632C463.633 177.729 461.763 180.364 459.095 182.539C456.41 184.73 452.72 186.443 448.025 187.678C443.33 188.914 437.358 189.532 430.11 189.532C422.944 189.532 417.039 188.914 412.393 187.678C407.731 186.443 404.066 184.73 401.397 182.539C398.712 180.364 396.859 177.729 395.838 174.632C394.8 171.551 394.281 168.116 394.281 164.328V144.313C394.281 142.748 394.635 141.611 395.344 140.903C396.035 140.211 397.164 139.865 398.729 139.865H416.643C418.208 139.865 419.345 140.211 420.053 140.903C420.745 141.611 421.091 142.748 421.091 144.313V159.386C421.091 161.033 421.61 162.409 422.648 163.512C423.669 164.632 426.074 165.192 429.863 165.192C433.405 165.192 435.653 164.632 436.609 163.512C437.548 162.409 438.017 161.033 438.017 159.386V103.171C438.017 101.606 438.372 100.469 439.08 99.7609C439.772 99.069 440.9 98.7231 442.465 98.7231H461.862C463.427 98.7231 464.564 99.069 465.272 99.7609C465.964 100.469 466.31 101.606 466.31 103.171ZM514.988 124.668L509.182 143.448H528.579L522.772 124.668C522.443 123.927 522.088 123.392 521.709 123.062C521.347 122.733 520.919 122.568 520.425 122.568H517.336C516.842 122.568 516.405 122.733 516.026 123.062C515.664 123.392 515.318 123.927 514.988 124.668ZM507.946 165.934V183.231C507.946 184.796 507.592 185.924 506.884 186.616C506.192 187.324 505.063 187.678 503.498 187.678H485.337C483.772 187.678 482.635 187.324 481.927 186.616C481.235 185.924 480.889 184.796 480.889 183.231V150.614C480.889 148.143 481.276 145.301 482.05 142.089C482.841 138.877 484.06 135.129 485.707 130.846L496.456 102.8C496.95 101.4 497.708 100.37 498.729 99.7115C499.767 99.0526 501.11 98.7231 502.757 98.7231H535.992C537.557 98.7231 538.85 99.0526 539.871 99.7115C540.909 100.37 541.675 101.4 542.169 102.8L552.918 130.846C554.565 135.129 555.776 138.877 556.55 142.089C557.341 145.301 557.736 148.143 557.736 150.614V183.231C557.736 184.796 557.382 185.924 556.674 186.616C555.982 187.324 554.854 187.678 553.289 187.678H534.633C532.985 187.678 531.766 187.324 530.976 186.616C530.201 185.924 529.814 184.796 529.814 183.231V165.934H507.946ZM595.913 187.678H577.381C575.816 187.678 574.679 187.324 573.971 186.616C573.279 185.924 572.933 184.796 572.933 183.231V103.171C572.933 101.606 573.279 100.469 573.971 99.7609C574.679 99.069 575.816 98.7231 577.381 98.7231H590.23C591.795 98.7231 593.129 98.9702 594.233 99.4644C595.353 99.9586 596.448 100.823 597.519 102.059L621.488 129.487V103.171C621.488 101.606 621.834 100.469 622.525 99.7609C623.234 99.069 624.371 98.7231 625.935 98.7231H644.468C646.033 98.7231 647.161 99.069 647.853 99.7609C648.561 100.469 648.916 101.606 648.916 103.171V183.231C648.916 184.796 648.561 185.924 647.853 186.616C647.161 187.324 646.033 187.678 644.468 187.678H625.935C624.371 187.678 623.234 187.324 622.525 186.616C621.834 185.924 621.488 184.796 621.488 183.231V168.034L600.361 142.459V183.231C600.361 184.796 600.007 185.924 599.298 186.616C598.606 187.324 597.478 187.678 595.913 187.678ZM718.573 187.678H686.45C684.885 187.678 683.592 187.39 682.57 186.814C681.533 186.237 680.725 185.166 680.149 183.601L668.041 153.332C667.3 151.52 666.682 149.93 666.188 148.563C665.694 147.212 665.282 145.919 664.952 144.683C664.623 143.448 664.4 142.146 664.285 140.779C664.153 139.428 664.087 137.765 664.087 135.788V103.171C664.087 101.606 664.442 100.469 665.15 99.7609C665.842 99.069 666.97 98.7231 668.535 98.7231H688.179C689.744 98.7231 690.939 99.069 691.762 99.7609C692.586 100.469 692.998 101.606 692.998 103.171V137.27C692.998 138.094 693.08 138.918 693.245 139.741C693.41 140.565 693.657 141.43 693.986 142.336L699.793 159.633C700.04 160.456 700.328 161.008 700.658 161.288C700.987 161.585 701.482 161.733 702.141 161.733H703.5C704.158 161.733 704.653 161.585 704.982 161.288C705.312 161.008 705.6 160.456 705.847 159.633L711.654 142.212C711.983 141.306 712.23 140.441 712.395 139.618C712.56 138.794 712.642 137.971 712.642 137.147V103.171C712.642 101.606 712.996 100.469 713.705 99.7609C714.397 99.069 715.525 98.7231 717.09 98.7231H736.487C738.052 98.7231 739.189 99.069 739.897 99.7609C740.589 100.469 740.935 101.606 740.935 103.171V135.788C740.935 137.765 740.877 139.428 740.762 140.779C740.63 142.146 740.4 143.448 740.07 144.683C739.741 145.919 739.329 147.212 738.835 148.563C738.34 149.93 737.723 151.52 736.981 153.332L724.874 183.601C724.297 185.166 723.498 186.237 722.477 186.814C721.439 187.39 720.137 187.678 718.573 187.678ZM788.378 124.668L782.571 143.448H801.968L796.161 124.668C795.832 123.927 795.486 123.392 795.124 123.062C794.745 122.733 794.308 122.568 793.814 122.568H790.725C790.231 122.568 789.803 122.733 789.44 123.062C789.061 123.392 788.707 123.927 788.378 124.668ZM781.335 165.934V183.231C781.335 184.796 780.99 185.924 780.298 186.616C779.589 187.324 778.453 187.678 776.888 187.678H758.726C757.161 187.678 756.033 187.324 755.341 186.616C754.632 185.924 754.278 184.796 754.278 183.231V150.614C754.278 148.143 754.674 145.301 755.464 142.089C756.239 138.877 757.449 135.129 759.097 130.846L769.845 102.8C770.34 101.4 771.106 100.37 772.143 99.7115C773.165 99.0526 774.499 98.7231 776.146 98.7231H809.381C810.946 98.7231 812.247 99.0526 813.285 99.7115C814.307 100.37 815.064 101.4 815.559 102.8L826.307 130.846C827.955 135.129 829.174 138.877 829.964 142.089C830.739 145.301 831.126 148.143 831.126 150.614V183.231C831.126 184.796 830.78 185.924 830.088 186.616C829.38 187.324 828.243 187.678 826.678 187.678H808.022C806.375 187.678 805.164 187.324 804.39 186.616C803.599 185.924 803.204 184.796 803.204 183.231V165.934H781.335ZM869.302 187.678H850.77C849.205 187.678 848.068 187.324 847.36 186.616C846.668 185.924 846.322 184.796 846.322 183.231V103.171C846.322 101.606 846.668 100.469 847.36 99.7609C848.068 99.069 849.205 98.7231 850.77 98.7231H863.619C865.184 98.7231 866.518 98.9702 867.622 99.4644C868.742 99.9586 869.838 100.823 870.909 102.059L894.877 129.487V103.171C894.877 101.606 895.223 100.469 895.915 99.7609C896.623 99.069 897.76 98.7231 899.325 98.7231H917.857C919.422 98.7231 920.55 99.069 921.242 99.7609C921.951 100.469 922.305 101.606 922.305 103.171V183.231C922.305 184.796 921.951 185.924 921.242 186.616C920.55 187.324 919.422 187.678 917.857 187.678H899.325C897.76 187.678 896.623 187.324 895.915 186.616C895.223 185.924 894.877 184.796 894.877 183.231V168.034L873.75 142.459V183.231C873.75 184.796 873.396 185.924 872.688 186.616C871.996 187.324 870.867 187.678 869.302 187.678ZM994.458 187.678H941.826C940.261 187.678 939.124 187.324 938.416 186.616C937.724 185.924 937.378 184.796 937.378 183.231V168.528C937.378 166.963 937.724 165.827 938.416 165.118C939.124 164.426 940.261 164.081 941.826 164.081H954.057V122.568H941.826C940.261 122.568 939.124 122.214 938.416 121.506C937.724 120.814 937.378 119.685 937.378 118.12V103.171C937.378 101.606 937.724 100.469 938.416 99.7609C939.124 99.069 940.261 98.7231 941.826 98.7231H994.458C996.023 98.7231 997.151 99.069 997.843 99.7609C998.551 100.469 998.905 101.606 998.905 103.171V118.12C998.905 119.685 998.551 120.814 997.843 121.506C997.151 122.214 996.023 122.568 994.458 122.568H982.473V164.081H994.458C996.023 164.081 997.151 164.426 997.843 165.118C998.551 165.827 998.905 166.963 998.905 168.528V183.231C998.905 184.796 998.551 185.924 997.843 186.616C997.151 187.324 996.023 187.678 994.458 187.678Z" fill="white"/>
</g>
</g>
<g clip-path="url(#clip7_1_155)">
<g clip-path="url(#clip8_1_155)">
<path d="M527.257 220.204L515.765 252.034H513.119L517.156 240.979L509.792 220.204H512.519L518.447 237.433L518.538 238.606L518.629 237.433L524.529 220.204H527.257ZM545.167 236.696C545.167 237.612 544.995 238.478 544.649 239.297C544.298 240.109 543.819 240.818 543.213 241.424C542.607 242.03 541.897 242.506 541.085 242.851C540.273 243.203 539.406 243.379 538.485 243.379H536.667C535.751 243.379 534.885 243.203 534.066 242.851C533.254 242.506 532.545 242.03 531.939 241.424C531.333 240.818 530.857 240.109 530.512 239.297C530.16 238.478 529.984 237.612 529.984 236.696V226.441C529.984 225.526 530.16 224.659 530.512 223.841C530.857 223.029 531.333 222.32 531.939 221.713C532.545 221.107 533.254 220.631 534.066 220.286C534.885 219.934 535.751 219.759 536.667 219.759H538.485C539.406 219.759 540.273 219.934 541.085 220.286C541.897 220.631 542.607 221.107 543.213 221.713C543.819 222.32 544.298 223.029 544.649 223.841C544.995 224.659 545.167 225.526 545.167 226.441V236.696ZM542.44 236.851V226.286C542.44 225.741 542.337 225.226 542.131 224.741C541.925 224.262 541.643 223.844 541.285 223.486C540.928 223.135 540.509 222.856 540.031 222.65C539.552 222.438 539.037 222.332 538.485 222.332H536.667C536.121 222.332 535.606 222.438 535.121 222.65C534.642 222.856 534.227 223.135 533.876 223.486C533.518 223.844 533.236 224.262 533.03 224.741C532.824 225.226 532.721 225.741 532.721 226.286V236.851C532.721 237.396 532.824 237.912 533.03 238.397C533.236 238.875 533.518 239.294 533.876 239.651C534.227 240.003 534.642 240.282 535.121 240.488C535.606 240.7 536.121 240.806 536.667 240.806H538.485C539.037 240.806 539.552 240.7 540.031 240.488C540.509 240.282 540.928 240.003 541.285 239.651C541.643 239.294 541.925 238.875 542.131 238.397C542.337 237.912 542.44 237.396 542.44 236.851ZM565.805 242.933H564.896L563.387 240.624C562.769 241.466 561.993 242.136 561.06 242.633C560.126 243.13 559.105 243.379 557.996 243.379H557.305C556.389 243.379 555.526 243.203 554.714 242.851C553.895 242.506 553.183 242.03 552.577 241.424C551.971 240.818 551.495 240.109 551.15 239.297C550.804 238.478 550.631 237.612 550.631 236.696V220.204H553.359V236.851C553.359 237.396 553.462 237.912 553.668 238.397C553.874 238.875 554.156 239.294 554.514 239.651C554.865 240.003 555.283 240.282 555.768 240.488C556.247 240.7 556.759 240.806 557.305 240.806H559.132C559.678 240.806 560.19 240.7 560.669 240.488C561.153 240.282 561.572 240.003 561.923 239.651C562.281 239.294 562.563 238.875 562.769 238.397C562.975 237.912 563.078 237.396 563.078 236.851V220.204H565.805V242.933ZM580.679 222.804H577.952C577.4 222.804 576.885 222.907 576.406 223.114C575.927 223.32 575.509 223.601 575.152 223.959C574.794 224.311 574.512 224.729 574.306 225.214C574.1 225.693 573.997 226.205 573.997 226.75V242.933H571.269V220.204H572.179L573.661 222.513C574.285 221.671 575.067 221.001 576.006 220.504C576.946 220.007 577.97 219.759 579.079 219.759H580.679V222.804ZM609.954 220.204L601.89 242.933H600.535L592.48 220.204H595.217L601.135 237.433L601.226 238.606L601.317 237.433L607.218 220.204H609.954ZM628.301 236.696C628.301 237.612 628.129 238.478 627.783 239.297C627.438 240.109 626.962 240.818 626.356 241.424C625.743 242.03 625.031 242.506 624.219 242.851C623.407 243.203 622.543 243.379 621.628 243.379H619.801C618.885 243.379 618.022 243.203 617.209 242.851C616.391 242.506 615.679 242.03 615.073 241.424C614.467 240.818 613.991 240.109 613.646 239.297C613.3 238.478 613.127 237.612 613.127 236.696V226.441C613.127 225.526 613.3 224.659 613.646 223.841C613.991 223.029 614.467 222.32 615.073 221.713C615.679 221.107 616.391 220.631 617.209 220.286C618.022 219.934 618.885 219.759 619.801 219.759H621.628C622.543 219.759 623.407 219.934 624.219 220.286C625.031 220.631 625.743 221.107 626.356 221.713C626.962 222.32 627.438 223.029 627.783 223.841C628.129 224.659 628.301 225.526 628.301 226.441V236.696ZM625.574 236.851V226.286C625.574 225.741 625.471 225.226 625.265 224.741C625.059 224.262 624.777 223.844 624.419 223.486C624.068 223.135 623.649 222.856 623.165 222.65C622.686 222.438 622.174 222.332 621.628 222.332H619.801C619.255 222.332 618.743 222.438 618.264 222.65C617.779 222.856 617.361 223.135 617.009 223.486C616.652 223.844 616.37 224.262 616.164 224.741C615.958 225.226 615.855 225.741 615.855 226.286V236.851C615.855 237.396 615.958 237.912 616.164 238.397C616.37 238.875 616.652 239.294 617.009 239.651C617.361 240.003 617.779 240.282 618.264 240.488C618.743 240.7 619.255 240.806 619.801 240.806H621.628C622.174 240.806 622.686 240.7 623.165 240.488C623.649 240.282 624.068 240.003 624.419 239.651C624.777 239.294 625.059 238.875 625.265 238.397C625.471 237.912 625.574 237.396 625.574 236.851ZM637.629 214.74H634.447V211.103H637.629V214.74ZM637.402 242.933H634.675V220.204H637.402V242.933ZM658.958 236.696C658.958 237.612 658.783 238.478 658.431 239.297C658.085 240.109 657.61 240.818 657.004 241.424C656.397 242.03 655.685 242.506 654.867 242.851C654.055 243.203 653.191 243.379 652.276 243.379H650.449C649.533 243.379 648.67 243.203 647.857 242.851C647.045 242.506 646.333 242.03 645.721 241.424C645.115 240.818 644.639 240.109 644.293 239.297C643.948 238.478 643.775 237.612 643.775 236.696V226.441C643.775 225.526 643.948 224.659 644.293 223.841C644.639 223.029 645.115 222.32 645.721 221.713C646.333 221.107 647.045 220.631 647.857 220.286C648.67 219.934 649.533 219.759 650.449 219.759H652.276C653.191 219.759 654.055 219.934 654.867 220.286C655.685 220.631 656.397 221.107 657.004 221.713C657.61 222.32 658.085 223.029 658.431 223.841C658.783 224.659 658.958 225.526 658.958 226.441V227.35L656.222 227.796V226.286C656.222 225.741 656.119 225.226 655.913 224.741C655.707 224.262 655.425 223.844 655.067 223.486C654.716 223.135 654.297 222.856 653.812 222.65C653.334 222.438 652.821 222.332 652.276 222.332H650.449C649.903 222.332 649.391 222.438 648.912 222.65C648.427 222.856 648.009 223.135 647.657 223.486C647.3 223.844 647.018 224.262 646.812 224.741C646.606 225.226 646.503 225.741 646.503 226.286V236.851C646.503 237.396 646.606 237.912 646.812 238.397C647.018 238.875 647.3 239.294 647.657 239.651C648.009 240.003 648.427 240.282 648.912 240.488C649.391 240.7 649.903 240.806 650.449 240.806H652.276C652.821 240.806 653.334 240.7 653.812 240.488C654.297 240.282 654.716 240.003 655.067 239.651C655.425 239.294 655.707 238.875 655.913 238.397C656.119 237.912 656.222 237.396 656.222 236.851V235.342L658.958 235.787V236.696ZM679.596 236.696C679.596 237.612 679.421 238.478 679.069 239.297C678.723 240.109 678.248 240.818 677.642 241.424C677.035 242.03 676.326 242.506 675.514 242.851C674.696 243.203 673.829 243.379 672.914 243.379H671.096C670.174 243.379 669.308 243.203 668.495 242.851C667.683 242.506 666.974 242.03 666.368 241.424C665.762 240.818 665.283 240.109 664.932 239.297C664.586 238.478 664.413 237.612 664.413 236.696V226.441C664.413 225.526 664.586 224.659 664.932 223.841C665.283 223.029 665.762 222.32 666.368 221.713C666.974 221.107 667.683 220.631 668.495 220.286C669.308 219.934 670.174 219.759 671.096 219.759H672.914C673.829 219.759 674.696 219.934 675.514 220.286C676.326 220.631 677.035 221.107 677.642 221.713C678.248 222.32 678.723 223.029 679.069 223.841C679.421 224.659 679.596 225.526 679.596 226.441V231.787H667.141V236.851C667.141 237.396 667.244 237.912 667.45 238.397C667.662 238.875 667.944 239.294 668.295 239.651C668.653 240.003 669.071 240.282 669.55 240.488C670.029 240.7 670.544 240.806 671.096 240.806H672.914C673.459 240.806 673.975 240.7 674.46 240.488C674.938 240.282 675.357 240.003 675.714 239.651C676.066 239.294 676.345 238.875 676.551 238.397C676.757 237.912 676.86 237.396 676.86 236.851V235.342L679.596 235.787V236.696ZM676.86 229.659V226.286C676.86 225.741 676.757 225.226 676.551 224.741C676.345 224.262 676.066 223.844 675.714 223.486C675.357 223.135 674.938 222.856 674.46 222.65C673.975 222.438 673.459 222.332 672.914 222.332H671.096C670.544 222.332 670.029 222.438 669.55 222.65C669.071 222.856 668.653 223.135 668.295 223.486C667.944 223.844 667.662 224.262 667.45 224.741C667.244 225.226 667.141 225.741 667.141 226.286V229.659H676.86ZM699.371 239.515L697.107 249.307H695.952V239.515H699.371ZM730.9 236.696C730.9 237.612 730.728 238.478 730.382 239.297C730.037 240.109 729.558 240.818 728.946 241.424C728.34 242.03 727.63 242.506 726.818 242.851C726.006 243.203 725.139 243.379 724.218 243.379H722.4C721.485 243.379 720.621 243.203 719.809 242.851C718.99 242.506 718.278 242.03 717.672 241.424C717.066 240.818 716.59 240.109 716.245 239.297C715.893 238.478 715.717 237.612 715.717 236.696V226.441C715.717 225.526 715.893 224.659 716.245 223.841C716.59 223.029 717.066 222.32 717.672 221.713C718.278 221.107 718.99 220.631 719.809 220.286C720.621 219.934 721.485 219.759 722.4 219.759H724.218C725.139 219.759 726.006 219.934 726.818 220.286C727.63 220.631 728.34 221.107 728.946 221.713C729.558 222.32 730.037 223.029 730.382 223.841C730.728 224.659 730.9 225.526 730.9 226.441V236.696ZM728.173 236.851V226.286C728.173 225.741 728.07 225.226 727.864 224.741C727.658 224.262 727.376 223.844 727.018 223.486C726.661 223.135 726.242 222.856 725.764 222.65C725.285 222.438 724.77 222.332 724.218 222.332H722.4C721.854 222.332 721.342 222.438 720.863 222.65C720.378 222.856 719.96 223.135 719.609 223.486C719.251 223.844 718.969 224.262 718.763 224.741C718.557 225.226 718.454 225.741 718.454 226.286V236.851C718.454 237.396 718.557 237.912 718.763 238.397C718.969 238.875 719.251 239.294 719.609 239.651C719.96 240.003 720.378 240.282 720.863 240.488C721.342 240.7 721.854 240.806 722.4 240.806H724.218C724.77 240.806 725.285 240.7 725.764 240.488C726.242 240.282 726.661 240.003 727.018 239.651C727.376 239.294 727.658 238.875 727.864 238.397C728.07 237.912 728.173 237.396 728.173 236.851ZM751.548 242.933H750.629L749.12 240.624C748.502 241.466 747.726 242.136 746.793 242.633C745.859 243.13 744.838 243.379 743.729 243.379H743.047C742.126 243.379 741.259 243.203 740.447 242.851C739.634 242.506 738.922 242.03 738.31 241.424C737.704 240.818 737.228 240.109 736.883 239.297C736.537 238.478 736.364 237.612 736.364 236.696V220.204H739.092V236.851C739.092 237.396 739.195 237.912 739.401 238.397C739.607 238.875 739.889 239.294 740.247 239.651C740.598 240.003 741.016 240.282 741.501 240.488C741.98 240.7 742.495 240.806 743.047 240.806H744.865C745.411 240.806 745.923 240.7 746.402 240.488C746.887 240.282 747.305 240.003 747.656 239.651C748.014 239.294 748.296 238.875 748.502 238.397C748.708 237.912 748.811 237.396 748.811 236.851V220.204H751.548V242.933ZM766.412 222.804H763.685C763.133 222.804 762.618 222.907 762.139 223.114C761.66 223.32 761.242 223.601 760.885 223.959C760.533 224.311 760.251 224.729 760.039 225.214C759.833 225.693 759.73 226.205 759.73 226.75V242.933H757.003V220.204H757.912L759.403 222.513C760.021 221.671 760.8 221.001 761.739 220.504C762.679 220.007 763.703 219.759 764.812 219.759H766.412V222.804ZM795.687 242.933H794.778L793.269 240.669C792.645 241.482 791.866 242.136 790.933 242.633C790.005 243.13 788.984 243.379 787.869 243.379H787.187C786.265 243.379 785.399 243.203 784.587 242.851C783.774 242.506 783.065 242.03 782.459 241.424C781.853 240.818 781.374 240.109 781.023 239.297C780.677 238.478 780.504 237.612 780.504 236.696V236.478C780.504 235.557 780.677 234.69 781.023 233.878C781.374 233.066 781.853 232.357 782.459 231.751C783.065 231.138 783.774 230.66 784.587 230.314C785.399 229.969 786.265 229.796 787.187 229.796H792.951V226.286C792.951 225.741 792.848 225.226 792.642 224.741C792.436 224.262 792.157 223.844 791.805 223.486C791.448 223.135 791.029 222.856 790.551 222.65C790.066 222.438 789.551 222.332 789.005 222.332H787.405C786.859 222.332 786.344 222.438 785.859 222.65C785.381 222.856 784.965 223.135 784.614 223.486C784.256 223.844 783.974 224.262 783.768 224.741C783.562 225.226 783.459 225.741 783.459 226.286V227.105L780.723 226.659V226.441C780.723 225.526 780.898 224.659 781.25 223.841C781.595 223.029 782.071 222.32 782.677 221.713C783.283 221.107 783.993 220.631 784.805 220.286C785.623 219.934 786.49 219.759 787.405 219.759H789.005C789.92 219.759 790.787 219.934 791.605 220.286C792.417 220.631 793.127 221.107 793.733 221.713C794.339 222.32 794.815 223.029 795.16 223.841C795.512 224.659 795.687 225.526 795.687 226.441V242.933ZM792.951 236.851V231.923H787.187C786.635 231.923 786.12 232.026 785.641 232.232C785.162 232.438 784.744 232.723 784.387 233.087C784.035 233.451 783.753 233.872 783.541 234.351C783.335 234.836 783.232 235.351 783.232 235.896V236.851C783.232 237.396 783.335 237.912 783.541 238.397C783.753 238.875 784.035 239.294 784.387 239.651C784.744 240.003 785.162 240.282 785.641 240.488C786.12 240.7 786.635 240.806 787.187 240.806H789.005C789.551 240.806 790.066 240.7 790.551 240.488C791.029 240.282 791.448 240.003 791.805 239.651C792.157 239.294 792.436 238.875 792.642 238.397C792.848 237.912 792.951 237.396 792.951 236.851ZM816.325 236.696C816.325 237.612 816.153 238.478 815.807 239.297C815.456 240.109 814.977 240.818 814.371 241.424C813.765 242.03 813.055 242.506 812.243 242.851C811.431 243.203 810.564 243.379 809.643 243.379H807.825C806.91 243.379 806.043 243.203 805.225 242.851C804.412 242.506 803.703 242.03 803.097 241.424C802.491 240.818 802.012 240.109 801.661 239.297C801.315 238.478 801.142 237.612 801.142 236.696V226.441C801.142 225.526 801.315 224.659 801.661 223.841C802.012 223.029 802.491 222.32 803.097 221.713C803.703 221.107 804.412 220.631 805.225 220.286C806.043 219.934 806.91 219.759 807.825 219.759H809.643C810.564 219.759 811.431 219.934 812.243 220.286C813.055 220.631 813.765 221.107 814.371 221.713C814.977 222.32 815.456 223.029 815.807 223.841C816.153 224.659 816.325 225.526 816.325 226.441V227.35L813.598 227.796V226.286C813.598 225.741 813.495 225.226 813.289 224.741C813.077 224.262 812.795 223.844 812.443 223.486C812.086 223.135 811.668 222.856 811.189 222.65C810.71 222.438 810.195 222.332 809.643 222.332H807.825C807.279 222.332 806.764 222.438 806.279 222.65C805.8 222.856 805.382 223.135 805.025 223.486C804.673 223.844 804.394 224.262 804.188 224.741C803.976 225.226 803.87 225.741 803.87 226.286V236.851C803.87 237.396 803.976 237.912 804.188 238.397C804.394 238.875 804.673 239.294 805.025 239.651C805.382 240.003 805.8 240.282 806.279 240.488C806.764 240.7 807.279 240.806 807.825 240.806H809.643C810.195 240.806 810.71 240.7 811.189 240.488C811.668 240.282 812.086 240.003 812.443 239.651C812.795 239.294 813.077 238.875 813.289 238.397C813.495 237.912 813.598 237.396 813.598 236.851V235.342L816.325 235.787V236.696ZM832.545 242.933H830.063C829.233 242.933 828.451 242.779 827.717 242.47C826.99 242.154 826.354 241.724 825.808 241.179C825.269 240.633 824.841 239.997 824.526 239.269C824.205 238.548 824.044 237.772 824.044 236.942V222.804H819.962V220.204H824.044V214.74L826.781 214.304V220.204H832.545V222.804H826.781V237.069C826.781 237.53 826.866 237.957 827.035 238.351C827.205 238.745 827.438 239.088 827.735 239.378C828.026 239.675 828.372 239.909 828.772 240.079C829.172 240.248 829.602 240.333 830.063 240.333H832.545V242.933ZM841.427 214.74H838.254V211.103H841.427V214.74ZM841.2 242.933H838.473V220.204H841.2V242.933ZM862.756 236.696C862.756 237.612 862.581 238.478 862.229 239.297C861.884 240.109 861.408 240.818 860.802 241.424C860.196 242.03 859.483 242.506 858.665 242.851C857.853 243.203 856.989 243.379 856.074 243.379H854.256C853.334 243.379 852.468 243.203 851.656 242.851C850.843 242.506 850.134 242.03 849.528 241.424C848.922 240.818 848.443 240.109 848.092 239.297C847.746 238.478 847.573 237.612 847.573 236.696V226.441C847.573 225.526 847.746 224.659 848.092 223.841C848.443 223.029 848.922 222.32 849.528 221.713C850.134 221.107 850.843 220.631 851.656 220.286C852.468 219.934 853.334 219.759 854.256 219.759H856.074C856.989 219.759 857.853 219.934 858.665 220.286C859.483 220.631 860.196 221.107 860.802 221.713C861.408 222.32 861.884 223.029 862.229 223.841C862.581 224.659 862.756 225.526 862.756 226.441V236.696ZM860.02 236.851V226.286C860.02 225.741 859.917 225.226 859.711 224.741C859.505 224.262 859.223 223.844 858.865 223.486C858.514 223.135 858.099 222.856 857.62 222.65C857.135 222.438 856.62 222.332 856.074 222.332H854.256C853.704 222.332 853.189 222.438 852.71 222.65C852.231 222.856 851.813 223.135 851.456 223.486C851.098 223.844 850.816 224.262 850.61 224.741C850.404 225.226 850.301 225.741 850.301 226.286V236.851C850.301 237.396 850.404 237.912 850.61 238.397C850.816 238.875 851.098 239.294 851.456 239.651C851.813 240.003 852.231 240.282 852.71 240.488C853.189 240.7 853.704 240.806 854.256 240.806H856.074C856.62 240.806 857.135 240.7 857.62 240.488C858.099 240.282 858.514 240.003 858.865 239.651C859.223 239.294 859.505 238.875 859.711 238.397C859.917 237.912 860.02 237.396 860.02 236.851ZM883.394 242.933H880.667V226.286C880.667 225.741 880.561 225.226 880.349 224.741C880.143 224.262 879.864 223.844 879.512 223.486C879.155 223.135 878.737 222.856 878.258 222.65C877.773 222.438 877.258 222.332 876.712 222.332H874.894C874.348 222.332 873.833 222.438 873.348 222.65C872.869 222.856 872.451 223.135 872.094 223.486C871.742 223.844 871.463 224.262 871.257 224.741C871.045 225.226 870.939 225.741 870.939 226.286V242.933H868.211V220.204H869.121L870.612 222.513C871.23 221.671 872.009 221.001 872.948 220.504C873.888 220.007 874.912 219.759 876.021 219.759H876.712C877.627 219.759 878.494 219.934 879.312 220.286C880.124 220.631 880.834 221.107 881.44 221.713C882.046 222.32 882.525 223.029 882.876 223.841C883.222 224.659 883.394 225.526 883.394 226.441V242.933Z" fill="white"/>
</g>
</g>
</g>
</g>
<g clip-path="url(#clip9_1_155)">
<g clip-path="url(#clip10_1_155)">
<path d="M1.09467 175.333C1.09467 78.6205 79.4947 0.220554 176.207 0.220554C272.919 0.220554 351.319 78.6205 351.32 175.333C351.32 272.045 272.92 350.445 176.207 350.446C79.4947 350.446 1.09467 272.046 1.09467 175.333ZM176.207 342.24C268.386 342.24 343.113 267.514 343.114 175.333C343.114 83.1531 268.388 8.42652 176.207 8.42652C84.0272 8.42652 9.30063 83.1531 9.30063 175.333C9.30063 267.512 84.0272 342.239 176.207 342.24Z" fill="white"/>
<path d="M176.207 348.694C271.952 348.694 349.568 271.078 349.568 175.333C349.568 79.5882 271.952 1.97165 176.207 1.97165C80.4623 1.97165 2.84576 79.5882 2.84576 175.333C2.84576 271.078 80.4623 348.694 176.207 348.694Z" fill="white"/>
<g clip-path="url(#clip11_1_155)">
<g clip-path="url(#clip12_1_155)">
<path d="M186.896 240.791C184.865 240.791 183.077 239.436 182.554 237.459L163.595 167.501L143.589 206.737C142.921 208.055 141.648 208.949 140.194 209.175C138.723 209.355 137.269 208.85 136.258 207.775L116.677 186.65H76.8991C74.4074 186.65 72.3851 184.627 72.3851 182.136C72.3851 179.644 74.4074 177.622 76.8991 177.622H118.636C119.89 177.622 121.091 178.145 121.949 179.066L138.479 196.896L160.86 152.984C161.708 151.323 163.433 150.321 165.346 150.547C167.206 150.736 168.75 152.054 169.238 153.851L186.328 216.866L207.814 113.469C208.248 111.401 210.053 109.903 212.157 109.894C214.341 109.686 216.111 111.284 216.616 113.342L231.856 175.753L246.716 168.982C247.294 168.72 247.935 168.576 248.585 168.576H275.515C277.998 168.576 280.029 170.598 280.029 173.09C280.029 175.581 277.998 177.604 275.515 177.604H249.542L230.601 186.225C229.382 186.785 227.974 186.758 226.773 186.18C225.554 185.593 224.678 184.483 224.344 183.183L212.563 134.892L191.311 237.197C190.887 239.265 189.117 240.754 187.023 240.791C186.978 240.791 186.932 240.791 186.896 240.791Z" fill="black"/>
</g>
</g>
</g>
</g>
</g>
</g>
</g>
<defs>
<clipPath id="clip0_1_155">
<rect width="1000" height="350.667" fill="white"/>
</clipPath>
<clipPath id="clip1_1_155">
<rect width="997.811" height="350.225" fill="white" transform="translate(1.09467 0.220554)"/>
</clipPath>
<clipPath id="clip2_1_155">
<rect width="997.811" height="350.225" fill="white" transform="translate(1.09467 0.220554)"/>
</clipPath>
<clipPath id="clip3_1_155">
<rect width="604.624" height="153.402" fill="white" transform="translate(394.281 98.632)"/>
</clipPath>
<clipPath id="clip4_1_155">
<rect width="604.624" height="153.402" fill="white" transform="translate(394.281 98.632)"/>
</clipPath>
<clipPath id="clip5_1_155">
<rect width="604.624" height="90.9908" fill="white" transform="translate(394.281 98.632)"/>
</clipPath>
<clipPath id="clip6_1_155">
<rect width="604.624" height="90.9908" fill="white" transform="translate(394.281 98.632)"/>
</clipPath>
<clipPath id="clip7_1_155">
<rect width="373.658" height="40.9306" fill="white" transform="translate(509.764 211.103)"/>
</clipPath>
<clipPath id="clip8_1_155">
<rect width="373.658" height="40.9306" fill="white" transform="translate(509.764 211.103)"/>
</clipPath>
<clipPath id="clip9_1_155">
<rect width="350.225" height="350.225" fill="white" transform="translate(1.09467 0.220554)"/>
</clipPath>
<clipPath id="clip10_1_155">
<rect width="350.225" height="350.225" fill="white" transform="translate(1.09467 0.220554)"/>
</clipPath>
<clipPath id="clip11_1_155">
<rect width="207.644" height="130.915" fill="white" transform="translate(72.3851 109.875)"/>
</clipPath>
<clipPath id="clip12_1_155">
<rect width="207.644" height="130.915" fill="white" transform="translate(72.3851 109.875)"/>
</clipPath>
</defs>
</svg>
