<svg width="33" height="33" viewBox="0 0 33 33" fill="none" xmlns="http://www.w3.org/2000/svg">
<path d="M33.0001 16.5C33.0001 17.8018 31.9448 18.8571 30.643 18.8571H22.8573C20.6481 18.8571 18.8573 20.648 18.8573 22.8571V30.6429C18.8573 31.9447 17.8019 33 16.5001 33V33C15.1983 33 14.143 31.9447 14.143 30.6429V22.8571C14.143 20.648 12.3521 18.8571 10.143 18.8571H2.35727C1.05545 18.8571 0.00012207 17.8018 0.00012207 16.5V16.5C0.00012207 15.1982 1.05545 14.1429 2.35726 14.1429H10.143C12.3521 14.1429 14.143 12.352 14.143 10.1429V2.35714C14.143 1.05533 15.1983 0 16.5001 0V0C17.8019 0 18.8573 1.05533 18.8573 2.35714V10.1429C18.8573 12.352 20.6481 14.1429 22.8573 14.1429H30.643C31.9448 14.1429 33.0001 15.1982 33.0001 16.5V16.5Z" fill="black"/>
</svg>
